<svg display="none" xmlns="http://www.w3.org/2000/svg">
  <symbol  viewBox="0 0 22 9" id="arrow">
    <path d="M.3 5.472h16.948l-.1 2.857a.292.292 0 000 .41l.172.172a.28.28 0 00.2.086.285.285 0 00.2-.084l4.193-4.211A.292.292 0 0022 4.5a.283.283 0 00-.084-.2L17.723.087a.289.289 0 00-.407 0l-.172.173a.287.287 0 00-.084.2.278.278 0 00.084.2l.113 2.865H.292A.3.3 0 000 3.82v1.37a.292.292 0 00.3.282z"></path>
  </symbol>
  <symbol xmlns="http://www.w3.org/2000/svg" viewBox="0 0 53.75 36.44" id="delivery">
    <path d="M9.003 4.77H2.877a.79.79 0 000 1.58h6.126a.79.79 0 000-1.58zm.524 11.01h-5.6a.785.785 0 100 1.57h5.6a.785.785 0 100-1.57zm-2.094-4.72H.787a.79.79 0 000 1.58h6.65a.79.79 0 00-.004-1.58zm0 11.01h-.646a.785.785 0 100 1.57h.644a.785.785 0 10.002-1.57zm-3.263 0H.787a.785.785 0 100 1.57h3.387a.785.785 0 10-.004-1.57zM41.03 2.21h-6.657V.79a.784.784 0 00-.786-.78H21.412a.785.785 0 100 1.57h11.39V18.8a.786.786 0 101.571 0V3.78h6.657a6.519 6.519 0 016.509 6.52v13.29h-2a4.974 4.974 0 00-9.824 0H34.37v-1.12a.786.786 0 10-1.571 0v1.12h-8.336a4.974 4.974 0 00-9.823 0h-1.634V1.58h5.261a.785.785 0 100-1.57h-6.046a.783.783 0 00-.785.78v23.59a.791.791 0 00.785.79h2.419a4.974 4.974 0 009.823 0h11.252a4.974 4.974 0 009.824 0h2.782a.791.791 0 00.785-.79V10.3a8.094 8.094 0 00-8.076-8.09zM19.555 27.79a3.41 3.41 0 113.4-3.41 3.411 3.411 0 01-3.4 3.41zm21.075 0a3.411 3.411 0 01-3.4-3.41 3.4 3.4 0 113.4 3.41zm.4-22.44h-4.3a.791.791 0 00-.785.79v7.39a.791.791 0 00.785.79h8.457a.792.792 0 00.786-.79V10.3a4.949 4.949 0 00-4.943-4.95zm3.367 7.39h-6.882V6.93h3.515a3.371 3.371 0 013.367 3.37v2.44zm-24.842 9.61a2.03 2.03 0 102.024 2.03 2.029 2.029 0 00-2.024-2.03zm0 2.49a.46.46 0 01-.455-.46.455.455 0 01.909 0 .46.46 0 01-.454.46zm21.075-2.49a2.03 2.03 0 102.025 2.03 2.03 2.03 0 00-2.025-2.03zm0 2.49a.46.46 0 01-.454-.46.454.454 0 01.908 0 .46.46 0 01-.454.46zm4.552-8.37a.783.783 0 00-.785.78v1.99a.786.786 0 101.571 0v-1.99a.784.784 0 00-.781-.78z"></path>
  
  </symbol>
  <symbol xmlns="http://www.w3.org/2000/svg" viewBox="0 0 53.56 52.25" id="nav-basket">
    <path d="M46.18 30.91a.83.83 0 00-.84.83v8.27a2.164 2.164 0 01-2.16 2.16H3.84a2.164 2.164 0 01-2.16-2.16V28.09h27.29a.84.84 0 100-1.68H1.68v-5.47h9.87a.828.828 0 00.83-.83.837.837 0 00-.83-.84H1.68v-2.88a2.166 2.166 0 012.16-2.17h25.13a.835.835 0 100-1.67H3.84a3.839 3.839 0 00-3.83 3.84v23.62a3.837 3.837 0 003.83 3.83h39.34a3.837 3.837 0 003.83-3.83v-8.27a.828.828 0 00-.83-.83zM28.97 19.27H14.75a.837.837 0 00-.83.84.828.828 0 00.83.83h14.22a.837.837 0 00.84-.83.845.845 0 00-.84-.84zm-9.24 11.56H5.46a.835.835 0 000 1.67h14.27a.835.835 0 100-1.67zm-6.08 3.99H5.46a.835.835 0 000 1.67h8.19a.835.835 0 000-1.67zm34.63-13.61a.832.832 0 00.84-.84V15.6a3.038 3.038 0 00-2.39-2.97V6.61a6.6 6.6 0 10-13.19 0v6.02a3.053 3.053 0 00-2.4 2.97v10.75a3.045 3.045 0 003.04 3.04h11.9a3.039 3.039 0 003.04-3.04v-3.19a.835.835 0 00-1.67 0v3.19a1.379 1.379 0 01-1.37 1.37h-11.9a1.379 1.379 0 01-1.37-1.37V15.6a1.379 1.379 0 011.37-1.37h11.9a1.379 1.379 0 011.37 1.37v4.77a.83.83 0 00.83.84zm-3.23-8.65h-9.84V6.61a4.92 4.92 0 119.84 0v5.95zm-4.92 4.32a3.092 3.092 0 00-.83 6.07v2.04a.83.83 0 00.83.84.839.839 0 00.84-.84v-2.04a3.094 3.094 0 00-.84-6.07zm0 4.52a1.425 1.425 0 111.42-1.43 1.428 1.428 0 01-1.42 1.43z"></path>
  </symbol>
  <symbol viewBox="0 0 18 17" id="nav-btn">
    <path d="M8.913 16.244a.707.707 0 01-.28-.056c-.353-.15-8.65-3.75-8.65-10.76C.074 2.779 2.19.722 4.801.722c1.743 0 3.266.918 4.112 2.31a4.796 4.796 0 014.112-2.31c2.61 0 4.725 2.058 4.817 4.684 0 7.034-8.297 10.634-8.65 10.783a.71.71 0 01-.28.056zM4.8 2.106c-1.847 0-3.343 1.47-3.408 3.346 0 5.408 6.125 8.663 7.52 9.335 1.395-.672 7.52-3.93 7.52-9.358-.065-1.853-1.563-3.323-3.408-3.323s-3.342 1.47-3.408 3.346a.7.7 0 01-.704.67.7.7 0 01-.705-.67C8.143 3.576 6.646 2.106 4.8 2.106z"></path>
  </symbol>
  <symbol viewBox="0 0 50.66 50.656" id="nav-heart">
    <path d="M20.36 23.545a.617.617 0 01.75.485 2.583 2.583 0 00.78 1.489 3.036 3.036 0 001.49.777.636.636 0 01.49.743.649.649 0 01-.72.515 4.21 4.21 0 01-2.14-1.13 4.164 4.164 0 01-1.13-2.136.6.6 0 01.48-.743zm3.28-6.076a6.267 6.267 0 016.28 6.257 6.136 6.136 0 01-.57 2.6l2.34 2.036c1.7 1.746.74 3.266.29 3.717-.42.454-1.99 1.414-3.73-.292l-2.06-2.35a6.261 6.261 0 11-2.55-11.968zm5.55 13.517a1.352 1.352 0 001.88.226 1.313 1.313 0 00-.23-1.874l-2.16-1.88a6.236 6.236 0 01-1.37 1.34zm-5.55-2.312a4.948 4.948 0 10-4.97-4.948 4.963 4.963 0 004.97 4.943z"></path>
  </symbol>
  <symbol viewBox="0 0 18.94 16.969" id="search">
    <path d="M5.53 16.978a2.074 2.074 0 110-4.147 2.056 2.056 0 011.46.6 2.03 2.03 0 01.61 1.466 2.071 2.071 0 01-2.07 2.081zm0-2.963a.889.889 0 10.34 1.71.9.9 0 00.55-.824.92.92 0 00-.26-.629.9.9 0 00-.63-.257zm8.39 2.963a2.045 2.045 0 01-1.46-.607 2.068 2.068 0 011.46-3.54 1.953 1.953 0 011.47.6 2.085 2.085 0 01-.67 3.383 2.093 2.093 0 01-.8.164zm0-2.963a.978.978 0 00-.82.548.887.887 0 001.16 1.161.891.891 0 00.29-1.452.9.9 0 00-.63-.257zm-11.27.164a.562.562 0 01-.25-.056.59.59 0 01-.29-.787 3.686 3.686 0 013.05-2.151L4.11 5.794a.591.591 0 111.16-.228l1.09 5.578h9.43l1.8-6.771H4.29A4.346 4.346 0 01.01.68.587.587 0 01.5.007a.6.6 0 01.68.5 3.159 3.159 0 003.11 2.682h14.07a.582.582 0 01.47.232.594.594 0 01.11.513l-2.13 7.956a.59.59 0 01-.57.44H5.88a.03.03 0 00-.02 0 2.66 2.66 0 00-2.68 1.51.586.586 0 01-.53.338z"></path>
  </symbol>
  <symbol>
    <svg viewBox="0 0 6.1 10.97" id="arrow-right">
  <path class="cls-1" d="M1539.33,4295.69a0.53,0.53,0,0,1-.41-0.19,0.6,0.6,0,0,1-.15-0.4,0.631,0.631,0,0,1,.17-0.43l4.55-4.47-4.55-4.48a0.607,0.607,0,0,1-.17-0.42,0.629,0.629,0,0,1,.15-0.41,0.559,0.559,0,0,1,.8-0.02l4.98,4.9,0.01,0.01a0.657,0.657,0,0,1,.12.17h0a0.7,0.7,0,0,1,.05.25h0a0.742,0.742,0,0,1-.05.25h0a0.61,0.61,0,0,1-.12.16c0,0.01-.01.01-0.01,0.02l-4.98,4.9A0.589,0.589,0,0,1,1539.33,4295.69Z" transform="translate(-1538.78 -4284.72)"/>
</svg>
  </symbol>

  <symbol>
    
<svg viewBox="0 0 95.926 95.926" id="admin">
		<path d="M47.893,47.221c11.768,0,21.341-10.592,21.341-23.611S59.66,0,47.893,0C36.125,0,26.55,10.592,26.55,23.61
			C26.55,36.63,36.125,47.221,47.893,47.221z"/>
		<path d="M72.477,44.123c-1.244-0.269-2.524,0.272-3.192,1.355C61.65,57.847,49.34,58.204,47.962,58.204
			s-13.687-0.357-21.32-12.722c-0.67-1.085-1.953-1.628-3.198-1.354C6.868,47.777,2.497,72.798,3.789,93.115
			c0.101,1.58,1.411,2.811,2.994,2.811h82.36c1.583,0,2.894-1.23,2.993-2.811C93.429,72.775,89.057,47.74,72.477,44.123z"/>
</svg>
  </symbol>
</svg>

<!-- SVG References -->
<svg class="icon">
  <use xlink:href="images/icons/sprite.svg#arrow"></use>
</svg>
<svg class="icon">
  <use xlink:href="images/icons/sprite.svg#delivery"></use>
</svg>
<svg class="icon">
  <use xlink:href="images/icons/sprite.svg#nav-basket"></use>
</svg>
<svg class="icon">
  <use xlink:href="images/icons/sprite.svg#nav-btn"></use>
</svg>
<svg class="icon">
  <use xlink:href="images/icons/sprite.svg#nav-heart"></use>
</svg>
<svg class="icon">
  <use xlink:href="images/icons/sprite.svg#nav-search"></use>
</svg>
<svg class="icon">
  <use xlink:href="images/icons/sprite.svg#payments"></use>
</svg>
<svg class="icon">
  <use xlink:href="images/icons/sprite.svg#admin"></use>
</svg>